<?xml version="1.0" encoding="UTF-8"?>
<!DOCTYPE svg PUBLIC "-//W3C//DTD SVG 1.1//EN" "http://www.w3.org/Graphics/SVG/1.1/DTD/svg11.dtd">
<svg version="1.1" id="Layer_1" xmlns="http://www.w3.org/2000/svg" xmlns:xlink="http://www.w3.org/1999/xlink" width="594" height="387">
<g style="fill:none;stroke:black">
<polygon points="81,18 143.354,126 18.646,126"/>
<rect x="246.088" y="39.088" transform="matrix(-0.7071, -0.7071, 0.7071, -0.7071, 443.371, 363.65)" width="101.823" height="101.823"/>
<polygon points="513,18 581.477,67.751 555.32,148.249 470.68,148.249 444.523,67.751"/>
<polygon points="81,234 143.354,270 143.354,342 81,378 18.646,342 18.646,270"/>
<polygon points="297,234 353.292,261.108 367.195,322.021 328.24,370.87 265.76,370.87 226.805,322.021 240.708,261.108"/>
<line x1="297" y1="162" x2="297" y2="18"/>
<line x1="225" y1="90" x2="369" y2="90"/>
<line x1="81" y1="378" x2="81" y2="234"/>
<line x1="143.354" y1="342" x2="18.646" y2="270"/>
<line x1="18.646" y1="342" x2="143.354" y2="270"/>
<polygon points="513,234 563.912,255.088 585,306 563.912,356.912 513,378 462.088,356.912 441,306 462.088,255.088"/>
<line x1="513" y1="378" x2="513" y2="234"/>
<line x1="441" y1="306" x2="585" y2="306"/>
<line x1="462.088" y1="356.912" x2="563.912" y2="255.088"/>
<line x1="563.912" y1="356.912" x2="462.088" y2="255.088"/>
<polyline points="444.523,67.751 513,90 513,18"/>
<polyline points="555.32,148.249 513,90 470.68,148.249"/>
<line x1="581.477" y1="67.751" x2="513" y2="90"/>
<polyline points="240.708,261.108 297,306 297,234"/>
<polyline points="226.805,322.021 297,306 265.76,370.87"/>
<polyline points="328.24,370.87 297,306 367.195,322.021"/>
<line x1="353.292" y1="261.108" x2="297" y2="306"/>
<polyline points="18.646,126 81,90 81,18"/>
<line x1="81" y1="90" x2="143.354" y2="126"/>
</g>
<g style="fill:blue;stroke:black">
<circle cx="81" cy="90" r="4"/>
<circle cx="81" cy="18" r="4"/>
<circle cx="18.646" cy="126" r="4"/>
<circle cx="143.354" cy="126" r="4"/>
<circle cx="225" cy="90" r="4"/>
<circle cx="297" cy="18" r="4"/>
<circle cx="297" cy="90" r="4"/>
<circle cx="297" cy="162" r="4"/>
<circle cx="369" cy="90" r="4"/>
<circle cx="513" cy="18" r="4"/>
<circle cx="513" cy="90" r="4"/>
<circle cx="444.523" cy="67.751" r="4"/>
<circle cx="470.68" cy="148.249" r="4"/>
<circle cx="555.32" cy="148.249" r="4"/>
<circle cx="581.477" cy="67.751" r="4"/>
<circle cx="81" cy="306" r="4"/>
<circle cx="81" cy="234" r="4"/>
<circle cx="81" cy="378" r="4"/>
<circle cx="18.646" cy="270" r="4"/>
<circle cx="18.646" cy="342" r="4"/>
<circle cx="143.354" cy="270" r="4"/>
<circle cx="143.354" cy="342" r="4"/>
<circle cx="297" cy="306" r="4"/>
<circle cx="297" cy="234" r="4"/>
<circle cx="240.708" cy="261.108" r="4"/>
<circle cx="226.805" cy="322.021" r="4"/>
<circle cx="265.76" cy="370.87" r="4"/>
<circle cx="328.24" cy="370.87" r="4"/>
<circle cx="367.195" cy="322.021" r="4"/>
<circle cx="353.292" cy="261.108" r="4"/>
<circle cx="462.088" cy="255.088" r="4"/>
<circle cx="513" cy="234" r="4"/>
<circle cx="513" cy="306" r="4"/>
<circle cx="441" cy="306" r="4"/>
<circle cx="462.088" cy="356.912" r="4"/>
<circle cx="513" cy="378" r="4"/>
<circle cx="563.912" cy="356.912" r="4"/>
<circle cx="585" cy="306" r="4"/>
<circle cx="563.912" cy="255.088" r="4"/>
</g>
<g>
	<path d="M13.464,27L9.36,10.824h2.208l1.92,8.184c0.48,2.04,0.912,4.032,1.2,5.592h0.048c0.264-1.608,0.768-3.528,1.32-5.616   l2.16-8.16H20.4l1.968,8.208c0.456,1.944,0.888,3.84,1.128,5.544h0.048C23.88,22.8,24.336,21,24.84,18.984l2.136-8.16h2.136   L24.528,27h-2.184l-2.04-8.4c-0.504-2.088-0.84-3.672-1.056-5.304H19.2c-0.264,1.632-0.648,3.192-1.248,5.28L15.648,27H13.464z"/>
	<path d="M35.01,30v-3.186h-5.436v-1.026l5.22-7.488h1.71v7.29h1.638v1.224h-1.638V30H35.01z M35.01,25.59v-3.924   c0-0.612,0.018-1.224,0.054-1.836H35.01c-0.36,0.684-0.648,1.188-0.972,1.746l-2.862,3.978v0.036H35.01z"/>
</g>
<g>
	<path d="M229.464,27l-4.104-16.176h2.208l1.92,8.184c0.48,2.04,0.912,4.032,1.2,5.592h0.048c0.264-1.608,0.768-3.528,1.32-5.616   l2.16-8.16h2.184l1.968,8.208c0.456,1.944,0.888,3.84,1.128,5.544h0.048c0.336-1.776,0.792-3.576,1.296-5.592l2.136-8.16h2.136   L240.528,27h-2.184l-2.04-8.4c-0.504-2.088-0.84-3.672-1.056-5.304H235.2c-0.264,1.632-0.648,3.192-1.248,5.28L231.648,27H229.464z   "/>
	<path d="M253.098,19.632h-4.464l-0.45,2.97c0.27-0.036,0.522-0.072,0.954-0.072c0.918,0,1.8,0.198,2.52,0.63   c0.918,0.504,1.674,1.53,1.674,3.042c0,2.286-1.818,3.996-4.356,3.996c-1.278,0-2.34-0.36-2.916-0.72l0.396-1.206   c0.486,0.288,1.44,0.648,2.52,0.648c1.476,0,2.772-0.972,2.754-2.556c0-1.548-1.026-2.61-3.348-2.61   c-0.684,0-1.206,0.054-1.638,0.126l0.756-5.58h5.598V19.632z"/>
</g>
<g>
	<path d="M445.464,27l-4.104-16.176h2.208l1.92,8.184c0.479,2.04,0.912,4.032,1.2,5.592h0.048c0.264-1.608,0.768-3.528,1.319-5.616   l2.16-8.16h2.185l1.968,8.208c0.456,1.944,0.888,3.84,1.128,5.544h0.048c0.336-1.776,0.792-3.576,1.296-5.592l2.137-8.16h2.136   L456.528,27h-2.185l-2.04-8.4c-0.504-2.088-0.84-3.672-1.056-5.304H451.2c-0.264,1.632-0.648,3.192-1.248,5.28L447.648,27H445.464z   "/>
	<path d="M468.792,19.398c-0.324-0.018-0.738,0.018-1.188,0.09c-2.502,0.396-3.798,2.214-4.067,4.158h0.036   c0.558-0.756,1.548-1.368,2.844-1.368c2.07,0,3.528,1.512,3.528,3.78c0,2.16-1.458,4.14-3.906,4.14   c-2.484,0-4.122-1.944-4.122-4.986c0-2.304,0.81-4.122,1.979-5.292c0.973-0.954,2.269-1.548,3.744-1.728   c0.468-0.072,0.864-0.09,1.152-0.09V19.398z M466.074,28.974c1.35,0,2.268-1.134,2.268-2.808s-0.954-2.682-2.412-2.682   c-0.954,0-1.854,0.576-2.286,1.44c-0.09,0.18-0.162,0.396-0.162,0.684c0.019,1.926,0.918,3.366,2.574,3.366H466.074z"/>
</g>
<g>
	<path d="M13.464,234L9.36,217.824h2.208l1.92,8.184c0.48,2.04,0.912,4.032,1.2,5.592h0.048c0.264-1.607,0.768-3.527,1.32-5.615   l2.16-8.16H20.4l1.968,8.208c0.456,1.943,0.888,3.84,1.128,5.544h0.048c0.336-1.776,0.792-3.576,1.296-5.592l2.136-8.16h2.136   L24.528,234h-2.184l-2.04-8.4c-0.504-2.088-0.84-3.672-1.056-5.304H19.2c-0.264,1.632-0.648,3.192-1.248,5.28L15.648,234H13.464z"/>
	<path d="M37.71,225.3v1.044L32.616,237h-1.62l5.058-10.35v-0.036H30.33V225.3H37.71z"/>
</g>
<g>
	<path d="M229.464,234l-4.104-16.176h2.208l1.92,8.184c0.48,2.04,0.912,4.032,1.2,5.592h0.048c0.264-1.607,0.768-3.527,1.32-5.615   l2.16-8.16h2.184l1.968,8.208c0.456,1.943,0.888,3.84,1.128,5.544h0.048c0.336-1.776,0.792-3.576,1.296-5.592l2.136-8.16h2.136   L240.528,234h-2.184l-2.04-8.4c-0.504-2.088-0.84-3.672-1.056-5.304H235.2c-0.264,1.632-0.648,3.192-1.248,5.28L231.648,234   H229.464z"/>
	<path d="M250.038,225.102c2.268,0,3.42,1.404,3.42,2.881c0,0.989-0.504,2.069-1.944,2.735v0.054   c1.458,0.576,2.358,1.62,2.358,3.024c0,2.052-1.746,3.402-3.978,3.402c-2.448,0-3.924-1.44-3.924-3.15   c0-1.476,0.882-2.538,2.304-3.149v-0.055c-1.314-0.611-1.872-1.62-1.872-2.628c0-1.854,1.566-3.114,3.618-3.114H250.038z    M249.948,236.046c1.422,0,2.34-0.882,2.34-2.088c0-1.404-0.99-2.106-2.574-2.556c-1.368,0.396-2.106,1.313-2.106,2.43   c-0.054,1.17,0.846,2.214,2.322,2.214H249.948z M249.984,226.236c-1.314,0-2.034,0.863-2.034,1.872   c-0.018,1.17,0.882,1.8,2.232,2.159c1.008-0.342,1.782-1.062,1.782-2.124c0-0.936-0.558-1.907-1.962-1.907H249.984z"/>
</g>
<g>
	<path d="M445.464,234l-4.104-16.176h2.208l1.92,8.184c0.479,2.04,0.912,4.032,1.2,5.592h0.048c0.264-1.607,0.768-3.527,1.319-5.615   l2.16-8.16h2.185l1.968,8.208c0.456,1.943,0.888,3.84,1.128,5.544h0.048c0.336-1.776,0.792-3.576,1.296-5.592l2.137-8.16h2.136   L456.528,234h-2.185l-2.04-8.4c-0.504-2.088-0.84-3.672-1.056-5.304H451.2c-0.264,1.632-0.648,3.192-1.248,5.28L447.648,234   H445.464z"/>
	<path d="M463.032,235.902c0.342,0.018,0.737,0,1.277-0.072c0.918-0.108,1.782-0.486,2.448-1.134   c0.774-0.702,1.332-1.729,1.548-3.114h-0.054c-0.648,0.792-1.584,1.26-2.772,1.26c-2.105,0-3.456-1.584-3.456-3.6   c0-2.196,1.62-4.141,4.015-4.141c2.394,0,3.87,1.927,3.87,4.933c0,2.574-0.864,4.374-2.017,5.508   c-0.899,0.864-2.142,1.422-3.401,1.566c-0.576,0.071-1.099,0.107-1.458,0.09V235.902z M465.894,226.308   c-1.332,0-2.286,1.188-2.286,2.845c0,1.458,0.883,2.483,2.25,2.483c1.062,0,1.891-0.521,2.322-1.224   c0.072-0.145,0.126-0.324,0.126-0.576c0.019-2.016-0.737-3.528-2.394-3.528H465.894z"/>
</g>
</svg>